<?xml version="1.0" encoding="UTF-8"?>
<svg version="1.1" xmlns="http://www.w3.org/2000/svg" width="422" height="427">
<path d="M0 0 C139.26 0 278.52 0 422 0 C422 140.91 422 281.82 422 427 C282.74 427 143.48 427 0 427 C0 286.09 0 145.18 0 0 Z " fill="#1F1F1F" transform="translate(0,0)"/>
<path d="M0 0 C0.66 0 1.32 0 2 0 C3.48608398 2.12597656 3.48608398 2.12597656 5.24609375 5.140625 C5.90923584 6.26065918 6.57237793 7.38069336 7.25561523 8.53466797 C7.61033905 9.13937927 7.96506287 9.74409058 8.33053589 10.36712646 C17.54932009 26.04767529 27.6190577 41.07167627 38 56 C38.51111328 56.73879395 39.02222656 57.47758789 39.54882812 58.23876953 C46.74592646 68.61878729 54.48493047 78.6020857 62.17431641 88.61914062 C63.71867942 90.63313208 65.25774934 92.65091378 66.79296875 94.671875 C71.77998885 101.2127627 76.9069863 107.62088531 82.11401367 113.98730469 C85.6373305 118.30030371 89.08761547 122.66149821 92.5 127.0625 C97.87818382 133.97071823 103.60175581 140.55353733 109.37255859 147.13427734 C112.02293345 150.17270589 114.63441033 153.24413956 117.25 156.3125 C121.4412297 161.22156083 125.70441753 166.05388052 130.0625 170.81640625 C131.0215625 171.89728516 131.0215625 171.89728516 132 173 C133.1446875 174.28197266 133.1446875 174.28197266 134.3125 175.58984375 C134.869375 176.38519531 135.42625 177.18054688 136 178 C134.67287174 181.98138478 132.73745389 182.9463389 129.375 185.4375 C128.17858976 186.33447516 126.98332084 187.23297423 125.7890625 188.1328125 C125.16418945 188.60235352 124.53931641 189.07189453 123.89550781 189.55566406 C120.79903691 191.91510789 117.77820904 194.36651504 114.75 196.8125 C112.17060161 198.87995418 109.58633981 200.94123787 107 203 C106.33484375 203.53028809 105.6696875 204.06057617 104.984375 204.60693359 C96.53550088 211.30839028 87.94085893 217.51945665 78.75268555 223.1706543 C73.81891086 226.20532325 68.9640309 229.33601048 64.15625 232.56640625 C62.9700648 233.35919029 61.78378548 234.15183352 60.59741211 234.94433594 C58.83575994 236.12153637 57.07729211 237.30240568 55.32717896 238.4967041 C53.69573933 239.60924278 52.05314605 240.7053717 50.41015625 241.80078125 C49.46277588 242.44184814 48.51539551 243.08291504 47.53930664 243.7434082 C45 245 45 245 42.90380859 244.87548828 C40.71499676 243.86893798 39.01542585 242.69281693 37.12890625 241.19140625 C36.39599365 240.61398682 35.66308105 240.03656738 34.90795898 239.44165039 C33.74695679 238.51147095 33.74695679 238.51147095 32.5625 237.5625 C30.94034729 236.28094221 29.31794986 234.9996941 27.6953125 233.71875 C26.89770508 233.08582031 26.10009766 232.45289063 25.27832031 231.80078125 C21.1692644 228.55298909 17.00638076 225.3766286 12.83984375 222.203125 C10.99179738 220.76942741 9.16939107 219.30184287 7.37890625 217.796875 C6.59386719 217.14203125 5.80882812 216.4871875 5 215.8125 C4.34 215.24144531 3.68 214.67039062 3 214.08203125 C1.03992046 212.810821 1.03992046 212.810821 -1.3125 213.03515625 C-5.61130731 214.57847806 -9.14564559 217.29366863 -12.828125 219.9375 C-15.47606587 221.74500747 -17.33902494 222.99701816 -20.59765625 223.01171875 C-23.57186687 221.75916501 -25.87334177 220.14789899 -28.4375 218.1875 C-29.39140625 217.46949219 -30.3453125 216.75148438 -31.328125 216.01171875 C-32.20984375 215.34785156 -33.0915625 214.68398438 -34 214 C-35.97918279 212.6289249 -37.97994448 211.31030628 -40 210 C-44.83672433 212.05987554 -48.37033878 215.73314025 -52.24609375 219.19921875 C-55 221 -55 221 -57.4921875 221.01953125 C-69.46039664 216.1539509 -81.69892607 203.57982945 -90 194 C-90.33 193.01 -90.66 192.02 -91 191 C-89.5421403 190.94416708 -88.08359017 190.90641579 -86.625 190.875 C-85.81289062 190.85179687 -85.00078125 190.82859375 -84.1640625 190.8046875 C-81.47393071 190.97074502 -79.27785818 191.37858056 -76.67578125 191.9921875 C-70.07108162 193.37688506 -63.46468761 193.299895 -56.75073242 193.26074219 C-54.56986584 193.25003616 -52.38982581 193.26068261 -50.20898438 193.2734375 C-43.07500356 193.27961862 -36.23254939 192.98832206 -29.23291016 191.44091797 C-26.0974635 190.8217821 -23.18435858 190.85847295 -20 191 C-20 190.34 -20 189.68 -20 189 C-20.66644531 188.76023438 -21.33289063 188.52046875 -22.01953125 188.2734375 C-25.76394113 186.67359789 -29.18723251 184.69715513 -32.6875 182.625 C-33.42500488 182.18873291 -34.16250977 181.75246582 -34.92236328 181.30297852 C-56.19866403 168.5789163 -77.43640593 154.26292836 -91 133 C-91 132.67 -91 132.34 -91 132 C-89.24236328 131.92652344 -89.24236328 131.92652344 -87.44921875 131.8515625 C-71.14572075 131.40528123 -71.14572075 131.40528123 -56 126 C-55.34 126 -54.68 126 -54 126 C-56.34564699 123.47157532 -58.88252391 121.65571392 -61.75 119.75 C-68.05562485 115.3803126 -73.3801143 111.38102412 -76 104 C-75.52691406 103.55011719 -75.05382812 103.10023438 -74.56640625 102.63671875 C-68.88967681 97.1149098 -63.93502723 91.18440121 -59 85 C-58.07395704 83.86373465 -57.14682944 82.72835261 -56.21875 81.59375 C-39.38316693 60.92157229 -24.50127597 38.75046249 -10.2890625 16.21875 C-9.75571289 15.37570313 -9.22236328 14.53265625 -8.67285156 13.6640625 C-7.47056155 11.74938232 -6.28132955 9.82647951 -5.10058594 7.8984375 C-4.16520996 6.38636719 -4.16520996 6.38636719 -3.2109375 4.84375 C-2.6442334 3.91755859 -2.0775293 2.99136719 -1.49365234 2.03710938 C-1.00074707 1.36486328 -0.5078418 0.69261719 0 0 Z " fill="#98DBCA" transform="translate(263,63)"/>
<path d="M0 0 C0.66 0 1.32 0 2 0 C2.31638428 0.72888428 2.63276855 1.45776855 2.95874023 2.20874023 C13.82601549 27.16475288 24.72454326 51.22775313 44 71 C44.87398437 71.92425781 45.74796875 72.84851563 46.6484375 73.80078125 C52.27946146 79.67262514 58.12720659 84.63182545 65 89 C60.43333422 93.56666578 52.0497018 92.34237782 45.95947266 92.40039062 C37.50337021 92.2961646 30.8105565 90.08021946 23 87 C22.34 87 21.68 87 21 87 C27.00285706 94.73020981 33.08860116 102.38371536 39.3125 109.9375 C39.88629395 110.63415771 40.46008789 111.33081543 41.05126953 112.04858398 C53.59564744 127.22709971 67.15115327 138.65992377 84.53125 148.0546875 C87.24184502 149.57481849 89.55783638 151.11220485 92 153 C87.82317579 153.05022543 83.64652132 153.0861004 79.46948242 153.10986328 C78.05473765 153.11979131 76.64001266 153.13333825 75.2253418 153.15087891 C65.97223125 153.26256004 57.11936252 152.74539156 48 151 C46.76092896 150.77280273 46.76092896 150.77280273 45.49682617 150.54101562 C43.301926 150.12208956 41.11979002 149.6675537 38.9375 149.1875 C38.18162598 149.0215332 37.42575195 148.85556641 36.64697266 148.68457031 C30.08173357 147.16490359 24.08843849 144.91289998 18 142 C42.13785837 173.88415146 68.17295624 194.08484427 104.5 210.5625 C106.30627959 211.38803763 108.11227088 212.21420638 109.91796875 213.04101562 C114.27537142 215.03460238 118.636534 217.0197218 123 219 C116.53145951 225.46854049 99.95648162 223.48010495 91.355896 223.50610352 C64.92069095 223.45283042 39.32733443 214.73093377 15 205 C15 217.87 15 230.74 15 244 C6.09 244 -2.82 244 -12 244 C-12 231.13 -12 218.26 -12 205 C-17.94 206.98 -17.94 206.98 -24 209 C-28.16615007 210.24857638 -32.36074079 211.37745327 -36.5625 212.5 C-37.68567627 212.80115723 -38.80885254 213.10231445 -39.96606445 213.41259766 C-56.73150137 217.84633366 -72.84957934 221.17870302 -90.25 221.1875 C-91.50941406 221.19974609 -92.76882812 221.21199219 -94.06640625 221.22460938 C-101.60482952 221.23635147 -108.6447289 220.6790033 -116 219 C-114.43328284 215.86656568 -111.27848547 215.56931961 -108.125 214.5 C-84.00410516 205.87125308 -63.16908453 190.8277892 -44.6171875 173.4296875 C-42.51938621 171.48217645 -40.39690227 169.62911965 -38.1875 167.8125 C-35.08027293 165.19194705 -32.51727645 162.23853735 -29.890625 159.14453125 C-27.1476897 156.03322654 -24.18533771 153.16193446 -21.2109375 150.2734375 C-18.64021753 147.630047 -16.33196077 144.85562916 -14 142 C-14.64735107 142.16604736 -15.29470215 142.33209473 -15.96166992 142.50317383 C-40.50838036 148.74320259 -65.74382993 154.64608992 -91 149 C-89.36927468 145.73854935 -85.76671044 145.28152852 -82.5 144.0625 C-68.45738141 138.5439449 -56.3022096 129.91826557 -45 120 C-43.69095703 118.87271484 -43.69095703 118.87271484 -42.35546875 117.72265625 C-37.1178071 113.12890503 -32.45776388 108.3420976 -28 103 C-27.06644098 101.91551446 -26.13142465 100.83228248 -25.1953125 99.75 C-24.1923978 98.58360027 -23.18979446 97.41693275 -22.1875 96.25 C-21.70676025 95.69473633 -21.22602051 95.13947266 -20.73071289 94.56738281 C-18.39416344 91.82474746 -16.52828275 89.25345278 -15 86 C-15.53367187 86.14099121 -16.06734375 86.28198242 -16.6171875 86.42724609 C-19.07798298 87.07703659 -21.53898998 87.72602254 -24 88.375 C-24.83917969 88.59671875 -25.67835937 88.8184375 -26.54296875 89.046875 C-28.22521361 89.49025737 -29.90832806 89.93035323 -31.59228516 90.3671875 C-33.10115899 90.7637603 -34.60676345 91.17324046 -36.10693359 91.6015625 C-41.00469175 92.95500171 -45.55398378 93.3047232 -50.625 93.25 C-51.71167969 93.26160156 -51.71167969 93.26160156 -52.8203125 93.2734375 C-57.25941067 93.25735381 -60.81818015 92.66217445 -65 91 C-61.63408278 87.49281253 -58.18563488 84.53510883 -54.25 81.6875 C-44.79615867 74.6636546 -37.19346161 67.34634349 -30 58 C-29.34257813 57.15824219 -28.68515625 56.31648438 -28.0078125 55.44921875 C-16.8215823 40.6465567 -9.52208918 24.89726976 -2.98632812 7.59277344 C-2.01900009 5.04994579 -1.01744885 2.52313659 0 0 Z " fill="#97DBCA" transform="translate(134,97)"/>
<path d="M0 0 C0.66 0 1.32 0 2 0 C3.29003906 1.70214844 3.29003906 1.70214844 4.765625 4.109375 C5.31871338 4.99915039 5.87180176 5.88892578 6.44165039 6.80566406 C7.33678345 8.26311035 7.33678345 8.26311035 8.25 9.75 C15.13976743 20.77148571 22.43359478 31.43480728 30 42 C30.5451123 42.7626416 31.09022461 43.5252832 31.65185547 44.31103516 C37.19181073 52.05099669 42.79669743 59.74306593 48.43701172 67.41015625 C49.63380704 69.03725639 50.82819503 70.6661303 52.02001953 72.296875 C54.5672025 75.7691902 57.1274556 79.20123564 59.8828125 82.51171875 C60.70523438 83.51847656 61.52765625 84.52523437 62.375 85.5625 C63.08398438 86.38878906 63.79296875 87.21507812 64.5234375 88.06640625 C68.32647722 95.62218093 65.61044041 105.91749353 64.625 114 C64.43550781 115.69576172 64.43550781 115.69576172 64.2421875 117.42578125 C64.04882812 119.04033203 64.04882812 119.04033203 63.8515625 120.6875 C63.73635254 121.66074219 63.62114258 122.63398438 63.50244141 123.63671875 C63 126 63 126 61 128 C52.19971015 113.41347306 43.48750989 98.78279331 34.92578125 84.0546875 C34.41998535 83.18553711 33.91418945 82.31638672 33.39306641 81.42089844 C32.5121924 79.89009811 31.6430687 78.35242258 30.79052734 76.80566406 C29.027341 73.29858998 29.027341 73.29858998 26 71 C25.88785156 71.84433594 25.77570313 72.68867188 25.66015625 73.55859375 C24.94616062 77.28066563 23.80196375 80.52679149 22.4375 84.0625 C21.89957358 85.46087365 21.361823 86.85931496 20.82421875 88.2578125 C20.53337402 89.0096582 20.2425293 89.76150391 19.94287109 90.53613281 C18.90681617 93.24350368 17.89923726 95.96053324 16.89453125 98.6796875 C16.17975357 100.59898294 15.46491053 102.51825404 14.75 104.4375 C14.4089624 105.36763916 14.0679248 106.29777832 13.71655273 107.25610352 C13.39243408 108.11905029 13.06831543 108.98199707 12.734375 109.87109375 C12.30463379 111.03016235 12.30463379 111.03016235 11.86621094 112.21264648 C11 114 11 114 9 115 C5.66666667 105.66666667 2.33333333 96.33333333 -1 87 C-4.33537489 88.11179163 -5.63707344 89.47411298 -8 92 C-9.17615134 88.41970952 -10.33925521 84.83531209 -11.5 81.25 C-11.83386719 80.23421875 -12.16773438 79.2184375 -12.51171875 78.171875 C-12.82753906 77.1921875 -13.14335937 76.2125 -13.46875 75.203125 C-13.76201172 74.30239258 -14.05527344 73.40166016 -14.35742188 72.47363281 C-15 70 -15 70 -15 66 C-15.66 66 -16.32 66 -17 66 C-17.40400024 66.87483032 -17.40400024 66.87483032 -17.81616211 67.76733398 C-19.00669045 70.0126179 -20.31494298 71.77489133 -21.94140625 73.72265625 C-22.52092041 74.42100586 -23.10043457 75.11935547 -23.69750977 75.83886719 C-24.31295654 76.57266602 -24.92840332 77.30646484 -25.5625 78.0625 C-26.83355731 79.58965736 -28.10439053 81.11700126 -29.375 82.64453125 C-29.99503906 83.38783691 -30.61507812 84.13114258 -31.25390625 84.89697266 C-34.21903867 88.46823254 -37.12637764 92.0858716 -40.03515625 95.703125 C-42.23336237 98.27279736 -44.58256368 100.63702932 -47 103 C-47.4835135 100.52161318 -47.96187201 98.04240222 -48.4375 95.5625 C-48.57220703 94.87478516 -48.70691406 94.18707031 -48.84570312 93.47851562 C-49.11649306 92.05851962 -49.37237502 90.6356125 -49.61450195 89.21044922 C-49.87530522 87.715001 -50.17729975 86.22625214 -50.51635742 84.74658203 C-51.35408888 80.32095689 -51.26874292 77.73233266 -48.74609375 73.921875 C-47.66576829 72.51366866 -46.56124029 71.12381074 -45.4375 69.75 C-44.22545101 68.1734225 -43.01725988 66.59387329 -41.8125 65.01171875 C-41.18214844 64.19364746 -40.55179688 63.37557617 -39.90234375 62.53271484 C-36.74153807 58.3245272 -33.83815137 53.95237934 -30.9375 49.5625 C-30.35436035 48.68263428 -29.7712207 47.80276855 -29.17041016 46.89624023 C-13.64788848 23.99915357 -13.64788848 23.99915357 0 0 Z " fill="#202121" transform="translate(262,79)"/>
<path d="M0 0 C-0.33 0.66 -0.66 1.32 -1 2 C-0.34 2.33 0.32 2.66 1 3 C-1.64 2.67 -4.28 2.34 -7 2 C-5.26578631 -1.46842738 -3.40984787 -1.13661596 0 0 Z " fill="#82B9AB" transform="translate(50,244)"/>
<path d="M0 0 C0.66 0 1.32 0 2 0 C2.33 1.32 2.66 2.64 3 4 C0.525 5.485 0.525 5.485 -2 7 C-1.34 4.69 -0.68 2.38 0 0 Z " fill="#83BBAD" transform="translate(134,97)"/>
</svg>
